<svg width="17" height="17" viewBox="0 0 17 17" fill="none" xmlns="http://www.w3.org/2000/svg">
    <path d="M14.5 1.5C14.7652 1.5 15.0196 1.60536 15.2071 1.79289C15.3946 1.98043 15.5 2.23478 15.5 2.5V14.5C15.5 14.7652 15.3946 15.0196 15.2071 15.2071C15.0196 15.3946 14.7652 15.5 14.5 15.5H2.5C2.23478 15.5 1.98043 15.3946 1.79289 15.2071C1.60536 15.0196 1.5 14.7652 1.5 14.5V2.5C1.5 2.23478 1.60536 1.98043 1.79289 1.79289C1.98043 1.60536 2.23478 1.5 2.5 1.5H14.5ZM2.5 0.5C1.96957 0.5 1.46086 0.710714 1.08579 1.08579C0.710714 1.46086 0.5 1.96957 0.5 2.5L0.5 14.5C0.5 15.0304 0.710714 15.5391 1.08579 15.9142C1.46086 16.2893 1.96957 16.5 2.5 16.5H14.5C15.0304 16.5 15.5391 16.2893 15.9142 15.9142C16.2893 15.5391 16.5 15.0304 16.5 14.5V2.5C16.5 1.96957 16.2893 1.46086 15.9142 1.08579C15.5391 0.710714 15.0304 0.5 14.5 0.5H2.5Z" fill="white"/>
    <path d="M8.5 4.5C8.63261 4.5 8.75979 4.55268 8.85355 4.64645C8.94732 4.74021 9 4.86739 9 5V8H12C12.1326 8 12.2598 8.05268 12.3536 8.14645C12.4473 8.24021 12.5 8.36739 12.5 8.5C12.5 8.63261 12.4473 8.75979 12.3536 8.85355C12.2598 8.94732 12.1326 9 12 9H9V12C9 12.1326 8.94732 12.2598 8.85355 12.3536C8.75979 12.4473 8.63261 12.5 8.5 12.5C8.36739 12.5 8.24021 12.4473 8.14645 12.3536C8.05268 12.2598 8 12.1326 8 12V9H5C4.86739 9 4.74021 8.94732 4.64645 8.85355C4.55268 8.75979 4.5 8.63261 4.5 8.5C4.5 8.36739 4.55268 8.24021 4.64645 8.14645C4.74021 8.05268 4.86739 8 5 8H8V5C8 4.86739 8.05268 4.74021 8.14645 4.64645C8.24021 4.55268 8.36739 4.5 8.5 4.5V4.5Z" fill="white"/>
</svg>