<svg width="20" height="24" viewBox="0 0 20 24" fill="none" xmlns="http://www.w3.org/2000/svg">
    <path d="M10.1333 10C9.62 10 9.22222 10.4475 9.22222 11C9.22222 11.5525 9.62 12 10.1333 12C10.6022 12 11 11.5525 11 11C11 10.4475 10.6022 10 10.1333 10ZM3.91111 10C3.39778 10 3 10.4475 3 11C3 11.5525 3.39778 12 3.91111 12C4.38 12 4.77778 11.5525 4.77778 11C4.77778 10.4475 4.38 10 3.91111 10Z" fill="black" fill-opacity="0.34"/>
    <path d="M18.5254 7.32294C17.4518 5.40537 15.9518 4.12408 14.3069 3.5459V3.54881C13.9252 2.99678 13.4944 2.48833 13.0123 2.03509C9.3585 -1.42235 4.22935 -0.367687 1.56211 4.38847C-0.587315 8.25267 -0.495803 13.4504 1.69603 17.1432L1.71388 20.9958C1.71388 21.0888 1.72504 21.1818 1.74736 21.2689C1.86566 21.7599 2.26742 22.0301 2.6424 21.8761L5.46812 20.7169C6.21584 21.0626 6.98811 21.2602 7.75592 21.3154L7.74476 21.327C9.73348 23.2126 12.3405 23.7792 14.7309 22.7507L17.5678 23.9535C17.6392 23.9826 17.7129 24 17.7888 24C18.1839 24 18.503 23.5845 18.503 23.0703V19.177C20.4694 15.7021 20.5208 10.8995 18.5254 7.32294ZM5.7806 18.654L5.51276 18.5088L3.30307 19.4095L3.28075 16.3878L3.10219 16.1263C1.21391 13.1279 1.08892 8.8076 2.85667 5.6378C5.00832 1.79684 9.13307 0.948464 12.0749 3.72023C15.0256 6.51233 15.6795 11.8728 13.548 15.6905C11.7601 18.8836 8.55945 20.0632 5.7806 18.654ZM17.0522 18.1601L16.8737 18.4507L16.896 21.4723L14.7086 20.5135L14.4408 20.6588C13.1909 21.2631 11.8583 21.3125 10.6241 20.8622L10.6196 20.8593C12.269 20.1997 13.7645 18.8632 14.8425 16.9398C16.5478 13.8805 16.8246 10.0366 15.8336 6.75929L15.8469 6.77091C16.3603 7.2503 16.8313 7.84882 17.2308 8.57226C18.8512 11.4661 18.7597 15.4058 17.0522 18.1601Z" fill="black" fill-opacity="0.34"/>
    <path d="M7.025 10C6.4475 10 6 10.4475 6 11C6 11.5525 6.4475 12 7.025 12C7.5525 12 8 11.5525 8 11C8 10.4475 7.5525 10 7.025 10Z" fill="black" fill-opacity="0.34"/>
    </svg>
    