<svg width="40" height="41" viewBox="0 0 40 41" fill="none" xmlns="http://www.w3.org/2000/svg">
    <path d="M39.611 16.583H38V16.5H20V24.5H31.303C29.654 29.157 25.223 32.5 20 32.5C13.373 32.5 8 27.127 8 20.5C8 13.873 13.373 8.5 20 8.5C23.059 8.5 25.842 9.654 27.961 11.539L33.618 5.882C30.046 2.553 25.268 0.5 20 0.5C8.955 0.5 0 9.455 0 20.5C0 31.545 8.955 40.5 20 40.5C31.045 40.5 40 31.545 40 20.5C40 19.159 39.862 17.85 39.611 16.583Z" fill="#FFC107"/>
    <path d="M2.30566 11.191L8.87666 16.01C10.6547 11.608 14.9607 8.5 19.9997 8.5C23.0587 8.5 25.8417 9.654 27.9607 11.539L33.6177 5.882C30.0457 2.553 25.2677 0.5 19.9997 0.5C12.3177 0.5 5.65566 4.837 2.30566 11.191Z" fill="#FF3D00"/>
    <path d="M20.0003 40.5C25.1663 40.5 29.8603 38.523 33.4093 35.308L27.2193 30.07C25.1439 31.6484 22.6078 32.5021 20.0003 32.5C14.7983 32.5 10.3813 29.183 8.71731 24.554L2.19531 29.579C5.50531 36.056 12.2273 40.5 20.0003 40.5Z" fill="#4CAF50"/>
    <path d="M39.611 16.583H38V16.5H20V24.5H31.303C30.5142 26.7164 29.0934 28.6532 27.216 30.071L27.219 30.069L33.409 35.307C32.971 35.705 40 30.5 40 20.5C40 19.159 39.862 17.85 39.611 16.583Z" fill="#1976D2"/>
    </svg>
    