<svg width="79" height="77" viewBox="0 0 79 77" fill="none" xmlns="http://www.w3.org/2000/svg">
    <path d="M16.7216 0H20.2832V3.42971H23.542V0H27.1036V10.3822H23.542V6.90754H20.2832V10.3822H16.7249V0H16.7216Z" fill="#FFB802"/>
    <path d="M31.7844 3.44254H28.6507V0H38.4829V3.44254H35.3459V10.3822H31.7844V3.44254Z" fill="#FFB802"/>
    <path d="M40.0432 0H43.7562L46.0406 3.64787L48.3217 0H52.0347V10.3822H48.4896V5.236L46.0406 8.92879H45.978L43.5257 5.23921V10.3822H40.0432V0Z" fill="#FFB802"/>
    <path d="M53.8056 0H57.3705V6.95246H62.3738V10.3854H53.8056V0Z" fill="#FFB802"/>
    <path fill-rule="evenodd" clip-rule="evenodd" d="M16.6098 70.8144L9.875 15.1338H69.125L62.387 70.808L39.4671 77.0001L16.6098 70.8144ZM30.2274 40.3352L29.5888 33.3411H56.3994L57.0248 26.5137H21.9357L23.8251 47.1658H48.1077L47.2947 56.0208L39.4803 58.0805H39.4737L31.6724 56.0272L31.1721 50.5827H24.1345L25.1154 61.3049L39.4671 65.187L53.8418 61.3049L55.593 42.1704L55.7641 40.3385H30.2274V40.3352Z" fill="#FFB802"/>
    </svg>
    