<svg width="25" height="18" viewBox="0 0 25 18" fill="none" xmlns="http://www.w3.org/2000/svg">
    <path d="M0 1.50263C1.40464e-05 1.2276 0.105099 0.957874 0.30376 0.722947C0.502422 0.488021 0.787009 0.296944 1.12639 0.170615C1.46578 0.044287 1.84689 -0.0124273 2.22804 0.00667633C2.6092 0.0257799 2.97571 0.119966 3.2875 0.278931L17.8708 7.72159C18.1417 7.85947 18.363 8.04194 18.5161 8.25379C18.6693 8.46565 18.7499 8.70077 18.7513 8.93959C18.7528 9.17841 18.6749 9.41402 18.5243 9.62681C18.3737 9.83961 18.1547 10.0234 17.8854 10.163L3.30208 17.7166C2.99097 17.8782 2.62394 17.9747 2.24145 17.9957C1.85896 18.0166 1.47585 17.9612 1.13436 17.8354C0.792869 17.7096 0.506249 17.5184 0.306092 17.2829C0.105935 17.0473 1.27704e-05 16.7765 0 16.5004V1.50263ZM25 0.749815C25 0.550951 24.8903 0.360233 24.6949 0.219616C24.4996 0.0789982 24.2346 0 23.9583 0C23.6821 0 23.4171 0.0789982 23.2218 0.219616C23.0264 0.360233 22.9167 0.550951 22.9167 0.749815V17.2457C22.9167 17.4446 23.0264 17.6353 23.2218 17.7759C23.4171 17.9166 23.6821 17.9956 23.9583 17.9956C24.2346 17.9956 24.4996 17.9166 24.6949 17.7759C24.8903 17.6353 25 17.4446 25 17.2457V0.749815Z" fill="white"/>
    </svg>
    