<svg width="17" height="23" viewBox="0 0 17 23" fill="none" xmlns="http://www.w3.org/2000/svg">
<path d="M1.50923 1.98267C0.527228 3.8224 0 5.8858 0 9.23061C0 15.1164 2.34249 20.3918 5.74898 23L6.60036 20.6827C3.42078 17.649 2.79917 13.7122 2.55129 11.2301C3.06326 11.6976 3.7335 11.8607 4.39039 11.7531C6.11031 11.4723 7.46604 8.98172 7.46604 5.88579C7.46604 4.32479 7.11448 2.82771 6.48869 1.72391C5.8629 0.620108 5.01415 0 4.12916 0C3.63974 0.00754547 3.15606 0.186722 2.70627 0.527105C2.25649 0.867489 1.84957 1.36228 1.50923 1.98267ZM11.0432 1.98267C10.0612 3.8224 9.53396 5.8858 9.53396 9.23061C9.53396 15.1164 11.8765 20.3918 15.2829 23L16.1343 20.6827C12.9547 17.649 12.3331 13.7122 12.0852 11.2301C12.5972 11.6976 13.2675 11.8607 13.9243 11.7531C15.6443 11.4723 17 8.98172 17 5.88579C17 4.32479 16.6484 2.82771 16.0226 1.72391C15.3969 0.620108 14.5481 0 13.6631 0C13.1737 0.00754547 12.69 0.186722 12.2402 0.527105C11.7904 0.867489 11.3835 1.36228 11.0432 1.98267Z" fill="#FFB802"/>
</svg>
