<svg width="21" height="18" viewBox="0 0 21 18" fill="none" xmlns="http://www.w3.org/2000/svg">
    <path d="M7.40029 1.95258C6.10897 3.03284 5.30075 4.45084 5.11083 5.96938C4.92091 7.48792 5.36081 9.0149 6.35695 10.2949C6.18306 10.416 6.03815 10.5492 5.83527 10.6702C5.54546 10.864 5.1542 11.1061 4.66151 11.3846C4.16882 11.6752 3.85002 11.8568 3.70511 11.9537C3.0965 12.329 2.64728 12.6438 2.34297 12.8981C1.87926 13.2855 1.47351 13.6851 1.12573 14.1089C0.763461 14.5326 0.488134 14.9443 0.27077 15.3681C0.0678976 15.7919 -0.0335392 16.1914 0.00993352 16.5789C0.0389153 16.9663 0.212807 17.2932 0.531607 17.5596C0.850407 17.826 1.24166 17.9713 1.70537 17.9955C2.15459 18.0197 2.64728 17.9471 3.13997 17.7654C3.64715 17.5959 4.15433 17.3538 4.64702 17.0511C5.1542 16.7605 5.6324 16.4215 6.09611 16.034C6.40042 15.7797 6.77718 15.4044 7.21191 14.908C7.35682 14.7506 7.57418 14.4842 7.89298 14.1089C8.21178 13.7214 8.47262 13.4187 8.70447 13.1644C8.93633 12.9223 9.12471 12.7407 9.34207 12.5591C10.8462 13.2171 12.5624 13.4569 14.2408 13.2435C15.9193 13.03 17.4725 12.3746 18.6742 11.3725C21.7753 8.7693 21.7753 4.54366 18.6742 1.95258C17.9343 1.33358 17.0556 0.842528 16.0883 0.507489C15.1211 0.17245 14.0843 0 13.0373 0C11.9902 0 10.9534 0.17245 9.98617 0.507489C9.01894 0.842528 8.14023 1.33358 7.40029 1.95258V1.95258ZM9.44351 9.65317C8.49684 8.8564 7.96558 7.77921 7.96558 6.65648C7.96558 5.53375 8.49684 4.45656 9.44351 3.65979C9.91399 3.26551 10.473 2.95268 11.0884 2.73923C11.7039 2.52578 12.3637 2.41591 13.03 2.41591C13.6964 2.41591 14.3562 2.52578 14.9716 2.73923C15.587 2.95268 16.146 3.26551 16.6165 3.65979C17.0884 4.0529 17.4628 4.51995 17.7182 5.03418C17.9737 5.54841 18.1052 6.09971 18.1052 6.65648C18.1052 7.21325 17.9737 7.76455 17.7182 8.27878C17.4628 8.79301 17.0884 9.26006 16.6165 9.65317C16.146 10.0475 15.587 10.3603 14.9716 10.5737C14.3562 10.7872 13.6964 10.897 13.03 10.897C12.3637 10.897 11.7039 10.7872 11.0884 10.5737C10.473 10.3603 9.91399 10.0475 9.44351 9.65317V9.65317Z" fill="white"/>
    </svg>
    